
<global>
amp_veltrack=0
ampeg_release=0.85
</global>

<group>
group_label=RR1_0-64
seq_length=4
xfin_hicc1=64
xfout_hicc1=127
xfout_locc1=64

<region>
hivel=127
key=A#3
lovel=1
offset=521
sample=Altos_Ooh_staccatissimo_PP_A#3_RR1.opus
</region>

<region>
hivel=127
key=A#4
lovel=1
sample=Altos_Ooh_staccatissimo_PP_A#4_RR1.opus
</region>

<region>
hivel=127
key=A3
lovel=1
sample=Altos_Ooh_staccatissimo_PP_A3_RR1.opus
</region>

<region>
hivel=127
key=A4
lovel=1
offset=1255
sample=Altos_Ooh_staccatissimo_PP_A4_RR1.opus
</region>

<region>
hivel=127
key=B3
lovel=1
sample=Altos_Ooh_staccatissimo_PP_B3_RR1.opus
</region>

<region>
hivel=127
key=B4
lovel=1
offset=1352
sample=Altos_Ooh_staccatissimo_PP_B4_RR1.opus
</region>

<region>
hivel=127
key=C#4
lovel=1
sample=Altos_Ooh_staccatissimo_PP_C#4_RR1.opus
</region>

<region>
hivel=127
key=C#5
lovel=1
offset=3460
sample=Altos_Ooh_staccatissimo_PP_C#5_RR1.opus
</region>

<region>
hikey=C4
hivel=127
lokey=C4
lovel=1
sample=Altos_Ooh_staccatissimo_PP_C4_RR1.opus
</region>

<region>
hivel=127
key=C5
lovel=1
offset=966
sample=Altos_Ooh_staccatissimo_PP_C5_RR1.opus
</region>

<region>
hivel=127
key=D#4
lovel=1
sample=Altos_Ooh_staccatissimo_PP_D#4_RR1.opus
</region>

<region>
hivel=127
key=D#5
lovel=1
offset=2146
sample=Altos_Ooh_staccatissimo_PP_D#5_RR1.opus
</region>

<region>
hivel=127
key=D4
lovel=1
sample=Altos_Ooh_staccatissimo_PP_D4_RR1.opus
</region>

<region>
hivel=127
key=D5
lovel=1
offset=2084
sample=Altos_Ooh_staccatissimo_PP_D5_RR1.opus
</region>

<region>
hivel=127
key=E4
lovel=1
sample=Altos_Ooh_staccatissimo_PP_E4_RR1.opus
</region>

<region>
hivel=127
key=E5
lovel=1
offset=1173
sample=Altos_Ooh_staccatissimo_PP_E5_RR1.opus
</region>

<region>
hivel=127
key=F#4
lovel=1
sample=Altos_Ooh_staccatissimo_PP_F#4_RR1.opus
</region>

<region>
hivel=127
key=F4
lovel=1
sample=Altos_Ooh_staccatissimo_PP_F4_RR1.opus
</region>

<region>
hikey=A5
hivel=127
lokey=F5
lovel=1
offset=2338
pitch_keycenter=F5
sample=Altos_Ooh_staccatissimo_PP_F5_RR1.opus
</region>

<region>
hivel=127
key=G#3
lovel=1
sample=Altos_Ooh_staccatissimo_PP_G#3_RR1.opus
</region>

<region>
hivel=127
key=G#4
lovel=1
sample=Altos_Ooh_staccatissimo_PP_G#4_RR1.opus
</region>

<region>
hikey=G3
hivel=127
lokey=D3
lovel=1
pitch_keycenter=G3
sample=Altos_Ooh_staccatissimo_PP_G3_RR1.opus
</region>

<region>
hivel=127
key=G4
lovel=1
sample=Altos_Ooh_staccatissimo_PP_G4_RR1.opus
</region>
</group>

<group>
group_label=RR2_0-64
seq_length=4
seq_position=2
xfin_hicc1=64
xfout_hicc1=127
xfout_locc1=64

<region>
hivel=127
key=A#3
lovel=1
sample=Altos_Ooh_staccatissimo_PP_A#3_RR2.opus
</region>

<region>
hivel=127
key=A#4
lovel=1
sample=Altos_Ooh_staccatissimo_PP_A#4_RR2.opus
</region>

<region>
hivel=127
key=A3
lovel=1
sample=Altos_Ooh_staccatissimo_PP_A3_RR2.opus
</region>

<region>
hivel=127
key=A4
lovel=1
sample=Altos_Ooh_staccatissimo_PP_A4_RR2.opus
</region>

<region>
hivel=127
key=B3
lovel=1
sample=Altos_Ooh_staccatissimo_PP_B3_RR2.opus
</region>

<region>
hivel=127
key=B4
lovel=1
sample=Altos_Ooh_staccatissimo_PP_B4_RR2.opus
</region>

<region>
hivel=127
key=C#4
lovel=1
sample=Altos_Ooh_staccatissimo_PP_C#4_RR2.opus
</region>

<region>
hivel=127
key=C#5
lovel=1
offset=1034
sample=Altos_Ooh_staccatissimo_PP_C#5_RR2.opus
</region>

<region>
hikey=C4
hivel=127
lokey=C4
lovel=1
sample=Altos_Ooh_staccatissimo_PP_C4_RR2.opus
</region>

<region>
hivel=127
key=C5
lovel=1
offset=921
sample=Altos_Ooh_staccatissimo_PP_C5_RR2.opus
</region>

<region>
hivel=127
key=D#4
lovel=1
sample=Altos_Ooh_staccatissimo_PP_D#4_RR2.opus
</region>

<region>
hivel=127
key=D#5
lovel=1
sample=Altos_Ooh_staccatissimo_PP_D#5_RR2.opus
</region>

<region>
hivel=127
key=D4
lovel=1
sample=Altos_Ooh_staccatissimo_PP_D4_RR2.opus
</region>

<region>
hivel=127
key=D5
lovel=1
sample=Altos_Ooh_staccatissimo_PP_D5_RR2.opus
</region>

<region>
hivel=127
key=E4
lovel=1
sample=Altos_Ooh_staccatissimo_PP_E4_RR2.opus
</region>

<region>
hivel=127
key=E5
lovel=1
sample=Altos_Ooh_staccatissimo_PP_E5_RR2.opus
</region>

<region>
hivel=127
key=F#4
lovel=1
sample=Altos_Ooh_staccatissimo_PP_F#4_RR2.opus
</region>

<region>
hivel=127
key=F4
lovel=1
sample=Altos_Ooh_staccatissimo_PP_F4_RR2.opus
</region>

<region>
hikey=A5
hivel=127
lokey=F5
lovel=1
pitch_keycenter=F5
sample=Altos_Ooh_staccatissimo_PP_F5_RR2.opus
</region>

<region>
hivel=127
key=G#3
lovel=1
sample=Altos_Ooh_staccatissimo_PP_G#3_RR2.opus
</region>

<region>
hivel=127
key=G#4
lovel=1
sample=Altos_Ooh_staccatissimo_PP_G#4_RR2.opus
</region>

<region>
hikey=G3
hivel=127
lokey=D3
lovel=1
pitch_keycenter=G3
sample=Altos_Ooh_staccatissimo_PP_G3_RR2.opus
</region>

<region>
hivel=127
key=G4
lovel=1
sample=Altos_Ooh_staccatissimo_PP_G4_RR2.opus
</region>
</group>

<group>
group_label=RR3_0-64
seq_length=4
seq_position=3
xfin_hicc1=64
xfout_hicc1=127
xfout_locc1=64

<region>
hivel=127
key=A#3
lovel=1
sample=Altos_Ooh_staccatissimo_PP_A#3_RR3.opus
</region>

<region>
hivel=127
key=A#4
lovel=1
sample=Altos_Ooh_staccatissimo_PP_A#4_RR3.opus
</region>

<region>
hivel=127
key=A3
lovel=1
sample=Altos_Ooh_staccatissimo_PP_A3_RR3.opus
</region>

<region>
hivel=127
key=A4
lovel=1
offset=899
sample=Altos_Ooh_staccatissimo_PP_A4_RR3.opus
</region>

<region>
hivel=127
key=B3
lovel=1
sample=Altos_Ooh_staccatissimo_PP_B3_RR3.opus
</region>

<region>
hivel=127
key=B4
lovel=1
sample=Altos_Ooh_staccatissimo_PP_B4_RR3.opus
</region>

<region>
hivel=127
key=C#4
lovel=1
offset=1430
sample=Altos_Ooh_staccatissimo_PP_C#4_RR3.opus
</region>

<region>
hivel=127
key=C#5
lovel=1
offset=101
sample=Altos_Ooh_staccatissimo_PP_C#5_RR3.opus
</region>

<region>
hikey=C4
hivel=127
lokey=C4
lovel=1
offset=232
sample=Altos_Ooh_staccatissimo_PP_C4_RR3.opus
</region>

<region>
hivel=127
key=C5
lovel=1
sample=Altos_Ooh_staccatissimo_PP_C5_RR3.opus
</region>

<region>
hivel=127
key=D#4
lovel=1
sample=Altos_Ooh_staccatissimo_PP_D#4_RR3.opus
</region>

<region>
hivel=127
key=D#5
lovel=1
sample=Altos_Ooh_staccatissimo_PP_D#5_RR3.opus
</region>

<region>
hivel=127
key=D4
lovel=1
offset=299
sample=Altos_Ooh_staccatissimo_PP_D4_RR3.opus
</region>

<region>
hivel=127
key=D5
lovel=1
sample=Altos_Ooh_staccatissimo_PP_D5_RR3.opus
</region>

<region>
hivel=127
key=E4
lovel=1
sample=Altos_Ooh_staccatissimo_PP_E4_RR3.opus
</region>

<region>
hivel=127
key=E5
lovel=1
sample=Altos_Ooh_staccatissimo_PP_E5_RR3.opus
</region>

<region>
hivel=127
key=F#4
lovel=1
sample=Altos_Ooh_staccatissimo_PP_F#4_RR3.opus
</region>

<region>
hivel=127
key=F4
lovel=1
sample=Altos_Ooh_staccatissimo_PP_F4_RR3.opus
</region>

<region>
hikey=A5
hivel=127
lokey=F5
lovel=1
offset=470
pitch_keycenter=F5
sample=Altos_Ooh_staccatissimo_PP_F5_RR3.opus
</region>

<region>
hivel=127
key=G#3
lovel=1
sample=Altos_Ooh_staccatissimo_PP_G#3_RR3.opus
</region>

<region>
hivel=127
key=G#4
lovel=1
sample=Altos_Ooh_staccatissimo_PP_G#4_RR3.opus
</region>

<region>
hikey=G3
hivel=127
lokey=D3
lovel=1
pitch_keycenter=G3
sample=Altos_Ooh_staccatissimo_PP_G3_RR3.opus
</region>

<region>
hivel=127
key=G4
lovel=1
sample=Altos_Ooh_staccatissimo_PP_G4_RR3.opus
</region>
</group>

<group>
group_label=RR4_0-64
seq_length=4
seq_position=4
xfin_hicc1=64
xfout_hicc1=127
xfout_locc1=64

<region>
hivel=127
key=A#3
lovel=1
sample=Altos_Ooh_staccatissimo_PP_A#3_RR4.opus
</region>

<region>
hivel=127
key=A#4
lovel=1
sample=Altos_Ooh_staccatissimo_PP_A#4_RR4.opus
</region>

<region>
hivel=127
key=A3
lovel=1
sample=Altos_Ooh_staccatissimo_PP_A3_RR4.opus
</region>

<region>
hivel=127
key=A4
lovel=1
sample=Altos_Ooh_staccatissimo_PP_A4_RR4.opus
</region>

<region>
hivel=127
key=B3
lovel=1
sample=Altos_Ooh_staccatissimo_PP_B3_RR4.opus
</region>

<region>
hivel=127
key=B4
lovel=1
sample=Altos_Ooh_staccatissimo_PP_B4_RR4.opus
</region>

<region>
hivel=127
key=C#4
lovel=1
sample=Altos_Ooh_staccatissimo_PP_C#4_RR4.opus
</region>

<region>
hivel=127
key=C#5
lovel=1
sample=Altos_Ooh_staccatissimo_PP_C#5_RR4.opus
</region>

<region>
hikey=C4
hivel=127
lokey=C4
lovel=1
sample=Altos_Ooh_staccatissimo_PP_C4_RR4.opus
</region>

<region>
hivel=127
key=C5
lovel=1
sample=Altos_Ooh_staccatissimo_PP_C5_RR4.opus
</region>

<region>
hivel=127
key=D#4
lovel=1
sample=Altos_Ooh_staccatissimo_PP_D#4_RR4.opus
</region>

<region>
hivel=127
key=D#5
lovel=1
sample=Altos_Ooh_staccatissimo_PP_D#5_RR4.opus
</region>

<region>
hivel=127
key=D4
lovel=1
sample=Altos_Ooh_staccatissimo_PP_D4_RR4.opus
</region>

<region>
hivel=127
key=D5
lovel=1
offset=388
sample=Altos_Ooh_staccatissimo_PP_D5_RR4.opus
</region>

<region>
hivel=127
key=E4
lovel=1
sample=Altos_Ooh_staccatissimo_PP_E4_RR4.opus
</region>

<region>
hivel=127
key=E5
lovel=1
sample=Altos_Ooh_staccatissimo_PP_E5_RR4.opus
</region>

<region>
hivel=127
key=F#4
lovel=1
offset=947
sample=Altos_Ooh_staccatissimo_PP_F#4_RR4.opus
</region>

<region>
hivel=127
key=F4
lovel=1
sample=Altos_Ooh_staccatissimo_PP_F4_RR4.opus
</region>

<region>
hikey=A5
hivel=127
lokey=F5
lovel=1
offset=780
pitch_keycenter=F5
sample=Altos_Ooh_staccatissimo_PP_F5_RR4.opus
</region>

<region>
hivel=127
key=G#3
lovel=1
sample=Altos_Ooh_staccatissimo_PP_G#3_RR4.opus
</region>

<region>
hivel=127
key=G#4
lovel=1
sample=Altos_Ooh_staccatissimo_PP_G#4_RR4.opus
</region>

<region>
hikey=G3
hivel=127
lokey=D3
lovel=1
pitch_keycenter=G3
sample=Altos_Ooh_staccatissimo_PP_G3_RR4.opus
</region>

<region>
hivel=127
key=G4
lovel=1
sample=Altos_Ooh_staccatissimo_PP_G4_RR4.opus
</region>
</group>

<group>
group_label=RR1_65-127
seq_length=4
xfin_hicc1=127
xfin_locc1=65
xfout_hicc1=127
xfout_locc1=127

<region>
hivel=127
key=A#3
lovel=1
offset=2983
sample=Altos_Ooh_staccatissimo_FF_A#3_RR1.opus
</region>

<region>
hivel=127
key=A#4
lovel=1
sample=Altos_Ooh_staccatissimo_FF_A#4_RR1.opus
</region>

<region>
hivel=127
key=A3
lovel=1
offset=2597
sample=Altos_Ooh_staccatissimo_FF_A3_RR1.opus
</region>

<region>
hivel=127
key=A4
lovel=1
sample=Altos_Ooh_staccatissimo_FF_A4_RR1.opus
</region>

<region>
hivel=127
key=B3
lovel=1
sample=Altos_Ooh_staccatissimo_FF_B3_RR1.opus
</region>

<region>
hivel=127
key=B4
lovel=1
offset=1583
sample=Altos_Ooh_staccatissimo_FF_B4_RR1.opus
</region>

<region>
hivel=127
key=C#4
lovel=1
sample=Altos_Ooh_staccatissimo_FF_C#4_RR1.opus
</region>

<region>
hivel=127
key=C#5
lovel=1
offset=1289
sample=Altos_Ooh_staccatissimo_FF_C#5_RR1.opus
</region>

<region>
hikey=C4
hivel=127
lokey=C4
lovel=1
sample=Altos_Ooh_staccatissimo_FF_C4_RR1.opus
</region>

<region>
hivel=127
key=C5
lovel=1
offset=3154
sample=Altos_Ooh_staccatissimo_FF_C5_RR1.opus
</region>

<region>
hivel=127
key=D#4
lovel=1
sample=Altos_Ooh_staccatissimo_FF_D#4_RR1.opus
</region>

<region>
hivel=127
key=D#5
lovel=1
offset=2623
sample=Altos_Ooh_staccatissimo_FF_D#5_RR1.opus
</region>

<region>
hivel=127
key=D4
lovel=1
sample=Altos_Ooh_staccatissimo_FF_D4_RR1.opus
</region>

<region>
hivel=127
key=D5
lovel=1
offset=713
sample=Altos_Ooh_staccatissimo_FF_D5_RR1.opus
</region>

<region>
hivel=127
key=E4
lovel=1
sample=Altos_Ooh_staccatissimo_FF_E4_RR1.opus
</region>

<region>
hivel=127
key=E5
lovel=1
offset=4436
sample=Altos_Ooh_staccatissimo_FF_E5_RR1.opus
</region>

<region>
hivel=127
key=F#4
lovel=1
sample=Altos_Ooh_staccatissimo_FF_F#4_RR1.opus
</region>

<region>
hivel=127
key=F4
lovel=1
offset=3097
sample=Altos_Ooh_staccatissimo_FF_F4_RR1.opus
</region>

<region>
hikey=A5
hivel=127
lokey=F5
lovel=1
offset=987
pitch_keycenter=F5
sample=Altos_Ooh_staccatissimo_FF_F5_RR1.opus
</region>

<region>
hivel=127
key=G#3
lovel=1
sample=Altos_Ooh_staccatissimo_FF_G#3_RR1.opus
</region>

<region>
hivel=127
key=G#4
lovel=1
offset=1427
sample=Altos_Ooh_staccatissimo_FF_G#4_RR1.opus
</region>

<region>
hikey=G3
hivel=127
lokey=D3
lovel=1
pitch_keycenter=G3
sample=Altos_Ooh_staccatissimo_FF_G3_RR1.opus
</region>

<region>
hivel=127
key=G4
lovel=1
sample=Altos_Ooh_staccatissimo_FF_G4_RR1.opus
</region>
</group>

<group>
group_label=RR2_65-127
seq_length=4
seq_position=2
xfin_hicc1=127
xfin_locc1=65
xfout_hicc1=127
xfout_locc1=127

<region>
hivel=127
key=A#3
lovel=1
sample=Altos_Ooh_staccatissimo_FF_A#3_RR2.opus
</region>

<region>
hivel=127
key=A#4
lovel=1
sample=Altos_Ooh_staccatissimo_FF_A#4_RR2.opus
</region>

<region>
hivel=127
key=A3
lovel=1
sample=Altos_Ooh_staccatissimo_FF_A3_RR2.opus
</region>

<region>
hivel=127
key=A4
lovel=1
sample=Altos_Ooh_staccatissimo_FF_A4_RR2.opus
</region>

<region>
hivel=127
key=B3
lovel=1
sample=Altos_Ooh_staccatissimo_FF_B3_RR2.opus
</region>

<region>
hivel=127
key=B4
lovel=1
sample=Altos_Ooh_staccatissimo_FF_B4_RR2.opus
</region>

<region>
hivel=127
key=C#4
lovel=1
sample=Altos_Ooh_staccatissimo_FF_C#4_RR2.opus
</region>

<region>
hivel=127
key=C#5
lovel=1
offset=1366
sample=Altos_Ooh_staccatissimo_FF_C#5_RR2.opus
</region>

<region>
hikey=C4
hivel=127
lokey=C4
lovel=1
sample=Altos_Ooh_staccatissimo_FF_C4_RR2.opus
</region>

<region>
hivel=127
key=C5
lovel=1
offset=978
sample=Altos_Ooh_staccatissimo_FF_C5_RR2.opus
</region>

<region>
hivel=127
key=D#4
lovel=1
sample=Altos_Ooh_staccatissimo_FF_D#4_RR2.opus
</region>

<region>
hivel=127
key=D#5
lovel=1
sample=Altos_Ooh_staccatissimo_FF_D#5_RR2.opus
</region>

<region>
hivel=127
key=D4
lovel=1
sample=Altos_Ooh_staccatissimo_FF_D4_RR2.opus
</region>

<region>
hivel=127
key=D5
lovel=1
sample=Altos_Ooh_staccatissimo_FF_D5_RR2.opus
</region>

<region>
hivel=127
key=E4
lovel=1
sample=Altos_Ooh_staccatissimo_FF_E4_RR2.opus
</region>

<region>
hivel=127
key=E5
lovel=1
offset=852
sample=Altos_Ooh_staccatissimo_FF_E5_RR2.opus
</region>

<region>
hivel=127
key=F#4
lovel=1
sample=Altos_Ooh_staccatissimo_FF_F#4_RR2.opus
</region>

<region>
hivel=127
key=F4
lovel=1
sample=Altos_Ooh_staccatissimo_FF_F4_RR2.opus
</region>

<region>
hikey=A5
hivel=127
lokey=F5
lovel=1
pitch_keycenter=F5
sample=Altos_Ooh_staccatissimo_FF_F5_RR2.opus
</region>

<region>
hivel=127
key=G#3
lovel=1
sample=Altos_Ooh_staccatissimo_FF_G#3_RR2.opus
</region>

<region>
hivel=127
key=G#4
lovel=1
offset=223
sample=Altos_Ooh_staccatissimo_FF_G#4_RR2.opus
</region>

<region>
hikey=G3
hivel=127
lokey=D3
lovel=1
pitch_keycenter=G3
sample=Altos_Ooh_staccatissimo_FF_G3_RR2.opus
</region>

<region>
hivel=127
key=G4
lovel=1
sample=Altos_Ooh_staccatissimo_FF_G4_RR2.opus
</region>
</group>

<group>
group_label=RR3_65-127
seq_length=4
seq_position=3
xfin_hicc1=127
xfin_locc1=65
xfout_hicc1=127
xfout_locc1=127

<region>
hivel=127
key=A#3
lovel=1
sample=Altos_Ooh_staccatissimo_FF_A#3_RR3.opus
</region>

<region>
hivel=127
key=A#4
lovel=1
sample=Altos_Ooh_staccatissimo_FF_A#4_RR3.opus
</region>

<region>
hivel=127
key=A3
lovel=1
sample=Altos_Ooh_staccatissimo_FF_A3_RR3.opus
</region>

<region>
hivel=127
key=A4
lovel=1
sample=Altos_Ooh_staccatissimo_FF_A4_RR3.opus
</region>

<region>
hivel=127
key=B3
lovel=1
sample=Altos_Ooh_staccatissimo_FF_B3_RR3.opus
</region>

<region>
hivel=127
key=B4
lovel=1
sample=Altos_Ooh_staccatissimo_FF_B4_RR3.opus
</region>

<region>
hivel=127
key=C#4
lovel=1
sample=Altos_Ooh_staccatissimo_FF_C#4_RR3.opus
</region>

<region>
hivel=127
key=C#5
lovel=1
sample=Altos_Ooh_staccatissimo_FF_C#5_RR3.opus
</region>

<region>
hikey=C4
hivel=127
lokey=C4
lovel=1
sample=Altos_Ooh_staccatissimo_FF_C4_RR3.opus
</region>

<region>
hivel=127
key=C5
lovel=1
sample=Altos_Ooh_staccatissimo_FF_C5_RR3.opus
</region>

<region>
hivel=127
key=D#4
lovel=1
sample=Altos_Ooh_staccatissimo_FF_D#4_RR3.opus
</region>

<region>
hivel=127
key=D#5
lovel=1
sample=Altos_Ooh_staccatissimo_FF_D#5_RR3.opus
</region>

<region>
hivel=127
key=D4
lovel=1
sample=Altos_Ooh_staccatissimo_FF_D4_RR3.opus
</region>

<region>
hivel=127
key=D5
lovel=1
sample=Altos_Ooh_staccatissimo_FF_D5_RR3.opus
</region>

<region>
hivel=127
key=E4
lovel=1
sample=Altos_Ooh_staccatissimo_FF_E4_RR3.opus
</region>

<region>
hivel=127
key=E5
lovel=1
sample=Altos_Ooh_staccatissimo_FF_E5_RR3.opus
</region>

<region>
hivel=127
key=F#4
lovel=1
sample=Altos_Ooh_staccatissimo_FF_F#4_RR3.opus
</region>

<region>
hivel=127
key=F4
lovel=1
sample=Altos_Ooh_staccatissimo_FF_F4_RR3.opus
</region>

<region>
hikey=A5
hivel=127
lokey=F5
lovel=1
offset=352
pitch_keycenter=F5
sample=Altos_Ooh_staccatissimo_FF_F5_RR3.opus
</region>

<region>
hivel=127
key=G#3
lovel=1
sample=Altos_Ooh_staccatissimo_FF_G#3_RR3.opus
</region>

<region>
hivel=127
key=G#4
lovel=1
sample=Altos_Ooh_staccatissimo_FF_G#4_RR3.opus
</region>

<region>
hikey=G3
hivel=127
lokey=D3
lovel=1
pitch_keycenter=G3
sample=Altos_Ooh_staccatissimo_FF_G3_RR3.opus
</region>

<region>
hivel=127
key=G4
lovel=1
sample=Altos_Ooh_staccatissimo_FF_G4_RR3.opus
</region>
</group>

<group>
group_label=RR4_65-127
seq_length=4
seq_position=4
xfin_hicc1=127
xfin_locc1=65
xfout_hicc1=127
xfout_locc1=127

<region>
hivel=127
key=A#3
lovel=1
sample=Altos_Ooh_staccatissimo_FF_A#3_RR4.opus
</region>

<region>
hivel=127
key=A#4
lovel=1
sample=Altos_Ooh_staccatissimo_FF_A#4_RR4.opus
</region>

<region>
hivel=127
key=A3
lovel=1
sample=Altos_Ooh_staccatissimo_FF_A3_RR4.opus
</region>

<region>
hivel=127
key=A4
lovel=1
sample=Altos_Ooh_staccatissimo_FF_A4_RR4.opus
</region>

<region>
hivel=127
key=B3
lovel=1
sample=Altos_Ooh_staccatissimo_FF_B3_RR4.opus
</region>

<region>
hivel=127
key=B4
lovel=1
sample=Altos_Ooh_staccatissimo_FF_B4_RR4.opus
</region>

<region>
hivel=127
key=C#4
lovel=1
sample=Altos_Ooh_staccatissimo_FF_C#4_RR4.opus
</region>

<region>
hivel=127
key=C#5
lovel=1
sample=Altos_Ooh_staccatissimo_FF_C#5_RR4.opus
</region>

<region>
hikey=C4
hivel=127
lokey=C4
lovel=1
sample=Altos_Ooh_staccatissimo_FF_C4_RR4.opus
</region>

<region>
hivel=127
key=C5
lovel=1
sample=Altos_Ooh_staccatissimo_FF_C5_RR4.opus
</region>

<region>
hivel=127
key=D#4
lovel=1
sample=Altos_Ooh_staccatissimo_FF_D#4_RR4.opus
</region>

<region>
hivel=127
key=D#5
lovel=1
sample=Altos_Ooh_staccatissimo_FF_D#5_RR4.opus
</region>

<region>
hivel=127
key=D4
lovel=1
sample=Altos_Ooh_staccatissimo_FF_D4_RR4.opus
</region>

<region>
hivel=127
key=D5
lovel=1
offset=80
sample=Altos_Ooh_staccatissimo_FF_D5_RR4.opus
</region>

<region>
hivel=127
key=E4
lovel=1
sample=Altos_Ooh_staccatissimo_FF_E4_RR4.opus
</region>

<region>
hivel=127
key=E5
lovel=1
offset=756
sample=Altos_Ooh_staccatissimo_FF_E5_RR4.opus
</region>

<region>
hivel=127
key=F#4
lovel=1
sample=Altos_Ooh_staccatissimo_FF_F#4_RR4.opus
</region>

<region>
hivel=127
key=F4
lovel=1
sample=Altos_Ooh_staccatissimo_FF_F4_RR4.opus
</region>

<region>
hikey=A5
hivel=127
lokey=F5
lovel=1
offset=1237
pitch_keycenter=F5
sample=Altos_Ooh_staccatissimo_FF_F5_RR4.opus
</region>

<region>
hivel=127
key=G#3
lovel=1
sample=Altos_Ooh_staccatissimo_FF_G#3_RR4.opus
</region>

<region>
hivel=127
key=G#4
lovel=1
sample=Altos_Ooh_staccatissimo_FF_G#4_RR4.opus
</region>

<region>
hikey=G3
hivel=127
lokey=D3
lovel=1
pitch_keycenter=G3
sample=Altos_Ooh_staccatissimo_FF_G3_RR4.opus
</region>

<region>
hivel=127
key=G4
lovel=1
sample=Altos_Ooh_staccatissimo_FF_G4_RR4.opus
</region>
</group>